<?xml version="1.0" encoding="UTF-8"?>
<svg xmlns="http://www.w3.org/2000/svg" xmlns:xlink="http://www.w3.org/1999/xlink" width="876pt" height="460pt" viewBox="0 0 876 460" version="1.1">
<g id="surface1">
<path style=" stroke:none;fill-rule:nonzero;fill:rgb(0%,0%,0%);fill-opacity:1;" d="M 363 52.800781 C 363 53.800781 363.378906 55.023438 363.851562 55.550781 C 364.316406 56.070312 366.445312 59.898438 368.550781 64 C 370.65625 68.101562 373.148438 72.632812 374.050781 74 C 374.953125 75.367188 377.519531 79.898438 379.714844 84 C 386.777344 97.199219 387.339844 97.917969 392.601562 100.496094 C 395.398438 101.871094 398.105469 103 398.601562 103 C 399.089844 103 401.699219 104.121094 404.300781 105.449219 C 406.976562 106.816406 411.398438 108.652344 414.300781 109.601562 C 418.257812 110.894531 421.351562 113.089844 427.25 118.800781 C 431.550781 122.960938 435 126.96875 435 127.800781 C 435 128.59375 434.269531 130.101562 433.449219 131 C 432.027344 132.5625 432.351562 133.039062 437.449219 136.898438 C 441.765625 140.167969 443.8125 142.699219 446.648438 148.300781 C 448.679688 152.300781 452.070312 158.167969 454.285156 161.5 C 458.601562 168 471.792969 182 473.601562 182 C 474.203125 182 475.511719 182.898438 476.5 184 C 477.488281 185.101562 478.863281 186 479.550781 186 C 480.21875 186 481.378906 186.699219 482.042969 187.5 C 483.578125 189.355469 498 196.355469 503.800781 198.0625 C 509.601562 199.769531 510.839844 198.523438 509.027344 192.800781 C 507.050781 186.554688 500.414062 173.5 495.65625 166.5 C 488.050781 155.300781 472.871094 142.160156 462 137.363281 C 461.179688 137 458.601562 135.863281 456.300781 134.851562 C 453.664062 133.6875 450.992188 131.398438 449.125 128.699219 C 444.699219 122.300781 443.34375 121.40625 441.101562 123.398438 C 440.101562 124.289062 438.65625 125 437.851562 125 C 437.054688 125 433.394531 121.949219 429.75 118.25 C 424.429688 112.851562 422.710938 110.300781 421.148438 105.5 C 420.078125 102.199219 417.535156 95.898438 415.5 91.5 C 413.464844 87.101562 411.191406 82.058594 410.449219 80.300781 C 409.519531 78.097656 407.699219 76.460938 404.601562 75.050781 C 402.101562 73.910156 399.832031 72.554688 399.5 72 C 399.171875 71.453125 397 70.074219 394.699219 68.949219 C 392.398438 67.828125 389.144531 66.039062 387.5 65 C 385.816406 63.933594 382.699219 62.222656 380.398438 61.101562 C 378.101562 59.976562 375.75 58.421875 375.050781 57.550781 C 374.324219 56.648438 373.421875 56 372.898438 56 C 372.40625 56 370.199219 54.859375 368 53.46875 C 363.300781 50.488281 363 50.449219 363 52.800781 Z M 376.398438 60.429688 C 379 61.742188 381.859375 63.425781 382.800781 64.199219 C 383.761719 64.992188 385.800781 66.226562 387.5 67.050781 C 389.128906 67.835938 392.101562 69.574219 394 70.851562 C 395.964844 72.167969 399.300781 74.011719 401.601562 75.046875 C 406.355469 77.191406 406.777344 77.699219 410.238281 85.5 C 411.6875 88.765625 414.277344 94.601562 415.921875 98.300781 C 419.300781 105.898438 419.300781 105.898438 418.175781 107.699219 C 417.265625 109.15625 412.300781 107.734375 403.5 103.503906 C 400.699219 102.15625 397.3125 100.8125 395.800781 100.449219 C 390.492188 99.167969 387.9375 95.5 373.679688 68.699219 C 371.128906 63.898438 369 59.492188 369 59 C 369 57.445312 371.398438 57.910156 376.398438 60.429688 Z M 446.425781 128.699219 C 449.425781 133.101562 449.503906 133.71875 447.367188 136.101562 C 444.949219 138.792969 441.769531 138.398438 438.492188 135 L 435.601562 132 L 439 128.5 C 440.847656 126.601562 442.742188 125 443.148438 125 C 443.554688 125 445.058594 126.699219 446.425781 128.699219 Z M 459.449219 138 C 462.851562 139.632812 466.269531 141.683594 466.949219 142.5 C 467.617188 143.300781 468.621094 144 469.101562 144 C 470.4375 144 481.136719 152.398438 484.636719 156.199219 C 495.960938 168.5 506 186.398438 506 194.300781 C 506 197.460938 506.101562 197.4375 500.800781 195.457031 C 482.5 188.613281 466.183594 175.566406 455.207031 159 C 449.777344 150.800781 446 143.789062 446 141.898438 C 446 140.398438 450.929688 135 452.300781 135 C 452.789062 135 456.050781 136.367188 459.449219 138 "/>
<path style=" stroke:none;fill-rule:nonzero;fill:rgb(0%,0%,0%);fill-opacity:1;" d="M 275.199219 258.199219 C 274.535156 258.863281 274 261.75 274 264.648438 C 274 269.25 273.597656 270.277344 270.75 272.949219 C 268.949219 274.640625 267.1875 276 266.800781 276 C 265.496094 276 262 282.699219 262 285.199219 C 262 290.019531 267.03125 289.601562 270.367188 284.5 C 271.28125 283.101562 272.484375 282 273.101562 282 C 274.484375 282 273.707031 342.5 272.28125 346 C 271.636719 347.578125 268.601562 349.785156 263.398438 352.449219 C 256.800781 355.835938 255.5 356.910156 255.5 359 C 255.5 362.332031 259.5 362.765625 264.898438 360.015625 C 271.300781 356.757812 272 357.089844 272 363.398438 C 272 368.601562 273.582031 372 276 372 C 276.523438 372 277.550781 371.351562 278.449219 370.449219 C 279.613281 369.289062 280 366.800781 280 360.5 L 280 352.101562 L 284.800781 348.863281 C 305.699219 334.769531 331.617188 313.886719 340.980469 303.601562 C 352.449219 291 354.714844 279.941406 347.921875 269.699219 C 342.140625 260.980469 334.199219 257.632812 319.5 257.722656 C 309.378906 257.78125 303.398438 258.941406 292.5 262.949219 C 282.5 266.628906 282.285156 266.621094 281.484375 262.800781 C 280.332031 257.300781 277.890625 255.511719 275.199219 258.199219 Z M 329.199219 265.332031 C 338.398438 268.109375 344 274.71875 344 282.800781 C 344 289.835938 332.101562 303.292969 311.5 319.554688 C 302.382812 326.75 298.699219 329.539062 286.601562 338.414062 C 284.5 339.953125 282.488281 340.820312 282.101562 340.351562 C 281.714844 339.882812 281.578125 325 281.800781 307.300781 L 282.199219 275.101562 L 290.5 271.613281 C 297.46875 268.6875 304.398438 266.660156 314.5 264.59375 C 318.839844 263.703125 324.800781 264.003906 329.199219 265.332031 "/>
<path style=" stroke:none;fill-rule:nonzero;fill:rgb(0%,0%,0%);fill-opacity:1;" d="M 609.230469 289.300781 C 608.722656 289.953125 607.359375 293 606.234375 296 C 600.152344 312.199219 598.472656 316.148438 594.835938 322.800781 C 592.648438 326.800781 590.277344 330 589.5 330 C 588.292969 330 578.535156 306.898438 575.015625 295.699219 C 573.632812 291.300781 570.609375 289.277344 568.300781 291.210938 C 565.855469 293.253906 567.277344 298.898438 575.066406 318 C 578.980469 327.601562 582.695312 336.695312 583.300781 338.148438 C 584.308594 340.578125 583.371094 342.5 572.199219 361 C 565.496094 372.101562 560 382.234375 560 383.5 C 560 386.398438 563.402344 387.3125 566 385.109375 C 567.050781 384.21875 572.4375 375.898438 578.050781 366.5 C 583.664062 357.101562 589.496094 348.023438 591.101562 346.199219 C 592.683594 344.398438 594 342.265625 594 341.5 C 594 340.730469 595.644531 337.300781 597.640625 333.898438 C 606.96875 318 616.703125 293.21875 614.921875 289.898438 C 613.742188 287.699219 610.714844 287.382812 609.230469 289.300781 "/>
<path style=" stroke:none;fill-rule:nonzero;fill:rgb(0%,0%,0%);fill-opacity:1;" d="M 381.199219 293.25 C 376.070312 294.878906 369.410156 301.398438 366.351562 307.800781 C 362.714844 315.398438 362.488281 327.140625 365.855469 333.699219 C 370.03125 341.835938 375.300781 345.328125 386.101562 347.109375 C 397.699219 349.027344 407.71875 346.363281 414 339.699219 C 421.859375 331.359375 420.101562 319.097656 409.601562 309.046875 C 407.199219 306.75 406 304.734375 406 303 C 406 299.574219 402.5 296.375 396.101562 293.953125 C 390.5 291.832031 386.296875 291.636719 381.199219 293.25 Z M 389.898438 303.050781 C 391.898438 304.746094 395.898438 307.96875 398.898438 310.304688 C 409.601562 318.640625 412.855469 325.320312 409.566406 332.199219 C 406.902344 337.773438 401.101562 340.464844 391.898438 340.394531 C 383 340.328125 377.859375 337.96875 374.046875 332.199219 C 372.035156 329.15625 371.601562 327.25 371.601562 321.449219 C 371.601562 315.550781 372.039062 313.648438 374.300781 309.800781 C 377.121094 305 382.476562 300.0625 384.898438 300.023438 C 385.679688 300.011719 387.898438 301.355469 389.898438 303.050781 "/>
<path style=" stroke:none;fill-rule:nonzero;fill:rgb(0%,0%,0%);fill-opacity:1;" d="M 448.5 293.214844 C 438.25 296.808594 430 309.601562 430 321.898438 C 430 332 437.03125 342.484375 445.800781 345.460938 C 466.101562 352.347656 486 343.210938 486 327 C 486 321.574219 483.636719 316.699219 478 310.5 C 475 307.199219 473 304.078125 473 302.699219 C 473 299.570312 469.300781 296.296875 463.101562 293.9375 C 457.5 291.8125 453.121094 291.59375 448.5 293.214844 Z M 459.199219 304.789062 C 468.5 311.972656 475.042969 318.140625 476.613281 321.199219 C 478.816406 325.5 478.34375 330.398438 475.386719 333.898438 C 471.148438 338.921875 467.398438 340.390625 458.898438 340.355469 C 449.101562 340.316406 443.832031 337.597656 440.394531 330.800781 C 437.476562 325.027344 437.386719 319.800781 440.082031 312.601562 C 442.140625 307.101562 448.574219 300 451.5 300 C 452.324219 300 455.800781 302.164062 459.199219 304.789062 "/>
<path style=" stroke:none;fill-rule:nonzero;fill:rgb(0%,0%,0%);fill-opacity:1;" d="M 500.5 297.949219 C 500.128906 299.148438 500.265625 300.667969 500.800781 301.199219 C 502.625 303.027344 510.199219 303.921875 524.199219 303.960938 C 533.300781 303.988281 538.136719 304.386719 538.601562 305.148438 C 539.015625 305.835938 532.351562 313.109375 522.148438 323.101562 C 512.75 332.308594 505 340.578125 505 341.398438 C 505 343.855469 508.398438 345.015625 515.699219 345.046875 C 522.652344 345.074219 537.398438 346.242188 546.601562 347.492188 C 551.300781 348.132812 551.910156 347.992188 552.949219 346.050781 C 553.804688 344.449219 553.808594 343.542969 552.964844 342.5 C 551.621094 340.847656 550 340.550781 533.199219 338.898438 C 523.398438 337.9375 521 337.394531 521 336.148438 C 521 335.296875 527.550781 328.273438 535.550781 320.550781 C 548.351562 308.191406 550.097656 306.113281 550.066406 303.300781 C 550.003906 297.480469 548.601562 297 531.601562 297 C 523.199219 297 512.894531 296.707031 508.75 296.351562 C 501.550781 295.730469 501.167969 295.804688 500.5 297.949219 "/>
</g>
</svg>
